<mxfile host="app.diagrams.net" modified="2023-04-04T13:29:40.189Z" agent="Mozilla/5.0 (Macintosh; Intel Mac OS X 10_15_7) AppleWebKit/537.36 (KHTML, like Gecko) Chrome/111.0.0.0 Safari/537.36" etag="21YqotjBudBOQp5a44Gj" version="21.1.4" type="github">
  <diagram name="Page-1" id="CXziZJRfGkEII9S6MPZV">
    <mxGraphModel dx="984" dy="668" grid="1" gridSize="10" guides="1" tooltips="1" connect="1" arrows="1" fold="1" page="1" pageScale="1" pageWidth="827" pageHeight="1169" math="0" shadow="0">
      <root>
        <mxCell id="0" />
        <mxCell id="1" parent="0" />
        <mxCell id="lqd2hJwmUWdvgEiue1Pk-13" style="edgeStyle=orthogonalEdgeStyle;rounded=0;orthogonalLoop=1;jettySize=auto;html=1;entryX=0.5;entryY=0;entryDx=0;entryDy=0;" edge="1" parent="1" source="lqd2hJwmUWdvgEiue1Pk-1" target="lqd2hJwmUWdvgEiue1Pk-2">
          <mxGeometry relative="1" as="geometry" />
        </mxCell>
        <mxCell id="lqd2hJwmUWdvgEiue1Pk-14" style="edgeStyle=orthogonalEdgeStyle;rounded=0;orthogonalLoop=1;jettySize=auto;html=1;entryX=0.5;entryY=0;entryDx=0;entryDy=0;" edge="1" parent="1" source="lqd2hJwmUWdvgEiue1Pk-1" target="lqd2hJwmUWdvgEiue1Pk-3">
          <mxGeometry relative="1" as="geometry" />
        </mxCell>
        <mxCell id="lqd2hJwmUWdvgEiue1Pk-1" value="(Basic) &lt;br&gt;types of data" style="rounded=0;whiteSpace=wrap;html=1;" vertex="1" parent="1">
          <mxGeometry x="360" y="100" width="120" height="60" as="geometry" />
        </mxCell>
        <mxCell id="lqd2hJwmUWdvgEiue1Pk-15" style="edgeStyle=orthogonalEdgeStyle;rounded=0;orthogonalLoop=1;jettySize=auto;html=1;exitX=0.5;exitY=1;exitDx=0;exitDy=0;entryX=0.5;entryY=0;entryDx=0;entryDy=0;" edge="1" parent="1" source="lqd2hJwmUWdvgEiue1Pk-2" target="lqd2hJwmUWdvgEiue1Pk-5">
          <mxGeometry relative="1" as="geometry" />
        </mxCell>
        <mxCell id="lqd2hJwmUWdvgEiue1Pk-16" style="edgeStyle=orthogonalEdgeStyle;rounded=0;orthogonalLoop=1;jettySize=auto;html=1;exitX=0.5;exitY=1;exitDx=0;exitDy=0;entryX=0.5;entryY=0;entryDx=0;entryDy=0;" edge="1" parent="1" source="lqd2hJwmUWdvgEiue1Pk-2" target="lqd2hJwmUWdvgEiue1Pk-6">
          <mxGeometry relative="1" as="geometry" />
        </mxCell>
        <mxCell id="lqd2hJwmUWdvgEiue1Pk-2" value="Qualitative data&lt;br&gt;(categorical)" style="rounded=0;whiteSpace=wrap;html=1;" vertex="1" parent="1">
          <mxGeometry x="200" y="200" width="120" height="60" as="geometry" />
        </mxCell>
        <mxCell id="lqd2hJwmUWdvgEiue1Pk-17" style="edgeStyle=orthogonalEdgeStyle;rounded=0;orthogonalLoop=1;jettySize=auto;html=1;exitX=0.5;exitY=1;exitDx=0;exitDy=0;entryX=0.5;entryY=0;entryDx=0;entryDy=0;" edge="1" parent="1" source="lqd2hJwmUWdvgEiue1Pk-3" target="lqd2hJwmUWdvgEiue1Pk-9">
          <mxGeometry relative="1" as="geometry" />
        </mxCell>
        <mxCell id="lqd2hJwmUWdvgEiue1Pk-18" style="edgeStyle=orthogonalEdgeStyle;rounded=0;orthogonalLoop=1;jettySize=auto;html=1;exitX=0.5;exitY=1;exitDx=0;exitDy=0;entryX=0.5;entryY=0;entryDx=0;entryDy=0;" edge="1" parent="1" source="lqd2hJwmUWdvgEiue1Pk-3" target="lqd2hJwmUWdvgEiue1Pk-10">
          <mxGeometry relative="1" as="geometry" />
        </mxCell>
        <mxCell id="lqd2hJwmUWdvgEiue1Pk-3" value="Quantitative data&lt;br&gt;(numerical)" style="rounded=0;whiteSpace=wrap;html=1;" vertex="1" parent="1">
          <mxGeometry x="520" y="200" width="120" height="60" as="geometry" />
        </mxCell>
        <mxCell id="lqd2hJwmUWdvgEiue1Pk-5" value="Nominal" style="rounded=0;whiteSpace=wrap;html=1;" vertex="1" parent="1">
          <mxGeometry x="120" y="290" width="120" height="60" as="geometry" />
        </mxCell>
        <mxCell id="lqd2hJwmUWdvgEiue1Pk-6" value="Ordinal" style="rounded=0;whiteSpace=wrap;html=1;" vertex="1" parent="1">
          <mxGeometry x="280" y="290" width="120" height="60" as="geometry" />
        </mxCell>
        <mxCell id="lqd2hJwmUWdvgEiue1Pk-7" style="edgeStyle=orthogonalEdgeStyle;rounded=0;orthogonalLoop=1;jettySize=auto;html=1;exitX=0.5;exitY=1;exitDx=0;exitDy=0;" edge="1" parent="1" source="lqd2hJwmUWdvgEiue1Pk-3" target="lqd2hJwmUWdvgEiue1Pk-3">
          <mxGeometry relative="1" as="geometry" />
        </mxCell>
        <mxCell id="lqd2hJwmUWdvgEiue1Pk-9" value="Discrete" style="rounded=0;whiteSpace=wrap;html=1;" vertex="1" parent="1">
          <mxGeometry x="440" y="290" width="120" height="60" as="geometry" />
        </mxCell>
        <mxCell id="lqd2hJwmUWdvgEiue1Pk-19" style="edgeStyle=orthogonalEdgeStyle;rounded=0;orthogonalLoop=1;jettySize=auto;html=1;exitX=0.5;exitY=1;exitDx=0;exitDy=0;entryX=0.5;entryY=0;entryDx=0;entryDy=0;" edge="1" parent="1" source="lqd2hJwmUWdvgEiue1Pk-10" target="lqd2hJwmUWdvgEiue1Pk-11">
          <mxGeometry relative="1" as="geometry" />
        </mxCell>
        <mxCell id="lqd2hJwmUWdvgEiue1Pk-20" style="edgeStyle=orthogonalEdgeStyle;rounded=0;orthogonalLoop=1;jettySize=auto;html=1;exitX=0.5;exitY=1;exitDx=0;exitDy=0;entryX=0.5;entryY=0;entryDx=0;entryDy=0;" edge="1" parent="1" source="lqd2hJwmUWdvgEiue1Pk-10" target="lqd2hJwmUWdvgEiue1Pk-12">
          <mxGeometry relative="1" as="geometry" />
        </mxCell>
        <mxCell id="lqd2hJwmUWdvgEiue1Pk-10" value="Continuous" style="rounded=0;whiteSpace=wrap;html=1;" vertex="1" parent="1">
          <mxGeometry x="600" y="290" width="120" height="60" as="geometry" />
        </mxCell>
        <mxCell id="lqd2hJwmUWdvgEiue1Pk-11" value="Interval" style="rounded=0;whiteSpace=wrap;html=1;" vertex="1" parent="1">
          <mxGeometry x="520" y="380" width="120" height="60" as="geometry" />
        </mxCell>
        <mxCell id="lqd2hJwmUWdvgEiue1Pk-12" value="Ratio" style="rounded=0;whiteSpace=wrap;html=1;" vertex="1" parent="1">
          <mxGeometry x="680" y="380" width="120" height="60" as="geometry" />
        </mxCell>
      </root>
    </mxGraphModel>
  </diagram>
</mxfile>
